<?xml version="1.0" encoding="UTF-8" standalone="no"?>
<!DOCTYPE svg PUBLIC "-//W3C//DTD SVG 1.1//EN"
 "http://www.w3.org/Graphics/SVG/1.1/DTD/svg11.dtd">
<!-- Generated by graphviz version 2.40.1 (20161225.0304)
 -->
<!-- Title: dependencies Pages: 1 -->
<svg width="674pt" height="284pt"
 viewBox="0.00 0.00 674.00 284.00" xmlns="http://www.w3.org/2000/svg" xmlns:xlink="http://www.w3.org/1999/xlink">
<g id="graph0" class="graph" transform="scale(1 1) rotate(0) translate(4 280)">
<title>dependencies</title>
<polygon fill="#ffffff" stroke="transparent" points="-4,4 -4,-280 670,-280 670,4 -4,4"/>
<text text-anchor="start" x="312.0091" y="-42.4" font-family="sans-serif" font-weight="bold" font-size="14.00" fill="#000000">Legend</text>
<polygon fill="#ffffb3" stroke="transparent" points="99,-10 99,-30 119,-30 119,-10 99,-10"/>
<text text-anchor="start" x="122.629" y="-15.4" font-family="sans-serif" font-size="14.00" fill="#000000"> &#160;Declarations</text>
<polygon fill="#8dd3c7" stroke="transparent" points="212,-10 212,-30 232,-30 232,-10 212,-10"/>
<text text-anchor="start" x="235.7251" y="-15.4" font-family="sans-serif" font-size="14.00" fill="#000000"> &#160;Module</text>
<polygon fill="#80b1d3" stroke="transparent" points="298,-10 298,-30 318,-30 318,-10 298,-10"/>
<text text-anchor="start" x="321.7812" y="-15.4" font-family="sans-serif" font-size="14.00" fill="#000000"> &#160;Bootstrap</text>
<polygon fill="#fdb462" stroke="transparent" points="395,-10 395,-30 415,-30 415,-10 395,-10"/>
<text text-anchor="start" x="418.6732" y="-15.4" font-family="sans-serif" font-size="14.00" fill="#000000"> &#160;Providers</text>
<polygon fill="#fb8072" stroke="transparent" points="491,-10 491,-30 511,-30 511,-10 491,-10"/>
<text text-anchor="start" x="514.7258" y="-15.4" font-family="sans-serif" font-size="14.00" fill="#000000"> &#160;Exports</text>
<g id="clust1" class="cluster">
<title>cluster_AppModule</title>
<polygon fill="none" stroke="#000000" stroke-dasharray="1,5" points="8,-70 8,-268 658,-268 658,-70 8,-70"/>
</g>
<g id="clust2" class="cluster">
<title>cluster_AppModule_declarations</title>
<polygon fill="none" stroke="#000000" points="528,-78 528,-130 650,-130 650,-78 528,-78"/>
</g>
<g id="clust4" class="cluster">
<title>cluster_AppModule_imports</title>
<polygon fill="none" stroke="#000000" points="16,-78 16,-130 520,-130 520,-78 16,-78"/>
</g>
<g id="clust6" class="cluster">
<title>cluster_AppModule_bootstrap</title>
<polygon fill="none" stroke="#000000" points="295,-208 295,-260 419,-260 419,-208 295,-208"/>
</g>
<!-- AppComponent -->
<g id="node1" class="node">
<title>AppComponent</title>
<polygon fill="#ffffb3" stroke="#000000" points="641.9399,-122 536.0601,-122 536.0601,-86 641.9399,-86 641.9399,-122"/>
<text text-anchor="middle" x="589" y="-99.8" font-family="Times,serif" font-size="14.00" fill="#000000">AppComponent</text>
</g>
<!-- AppModule -->
<g id="node2" class="node">
<title>AppModule</title>
<polygon fill="#8dd3c7" stroke="#000000" points="398.6571,-187 395.6571,-191 374.6571,-191 371.6571,-187 315.3429,-187 315.3429,-151 398.6571,-151 398.6571,-187"/>
<text text-anchor="middle" x="357" y="-164.8" font-family="Times,serif" font-size="14.00" fill="#000000">AppModule</text>
</g>
<!-- AppComponent&#45;&gt;AppModule -->
<g id="edge1" class="edge">
<title>AppComponent&#45;&gt;AppModule</title>
<path fill="none" stroke="#000000" d="M589,-122.1061C589,-141.3391 589,-169 589,-169 589,-169 408.7449,-169 408.7449,-169"/>
<polygon fill="#000000" stroke="#000000" points="408.7449,-165.5001 398.7449,-169 408.7449,-172.5001 408.7449,-165.5001"/>
</g>
<!-- AppComponent  -->
<g id="node6" class="node">
<title>AppComponent </title>
<polygon fill="#80b1d3" stroke="#000000" points="411.439,-252 302.561,-252 302.561,-216 411.439,-216 411.439,-252"/>
<text text-anchor="middle" x="357" y="-229.8" font-family="Times,serif" font-size="14.00" fill="#000000">AppComponent </text>
</g>
<!-- AppModule&#45;&gt;AppComponent  -->
<g id="edge5" class="edge">
<title>AppModule&#45;&gt;AppComponent </title>
<path fill="none" stroke="#000000" stroke-dasharray="1,5" d="M357,-187.1061C357,-187.1061 357,-205.991 357,-205.991"/>
<polygon fill="#000000" stroke="#000000" points="353.5001,-205.9909 357,-215.991 360.5001,-205.991 353.5001,-205.9909"/>
</g>
<!-- AppRoutingModule -->
<g id="node3" class="node">
<title>AppRoutingModule</title>
<polygon fill="#8dd3c7" stroke="#000000" points="512.2744,-122 509.2744,-126 488.2744,-126 485.2744,-122 383.7256,-122 383.7256,-86 512.2744,-86 512.2744,-122"/>
<text text-anchor="middle" x="448" y="-99.8" font-family="Times,serif" font-size="14.00" fill="#000000">AppRoutingModule</text>
</g>
<!-- AppRoutingModule&#45;&gt;AppModule -->
<g id="edge2" class="edge">
<title>AppRoutingModule&#45;&gt;AppModule</title>
<path fill="none" stroke="#000000" d="M391.2206,-122.1061C391.2206,-122.1061 391.2206,-140.991 391.2206,-140.991"/>
<polygon fill="#000000" stroke="#000000" points="387.7206,-140.9909 391.2206,-150.991 394.7206,-140.991 387.7206,-140.9909"/>
</g>
<!-- FeatureModulesAnimalsModule -->
<g id="node4" class="node">
<title>FeatureModulesAnimalsModule</title>
<polygon fill="#8dd3c7" stroke="#000000" points="365.9594,-122 362.9594,-126 341.9594,-126 338.9594,-122 168.0406,-122 168.0406,-86 365.9594,-86 365.9594,-122"/>
<text text-anchor="middle" x="267" y="-99.8" font-family="Times,serif" font-size="14.00" fill="#000000">FeatureModulesAnimalsModule</text>
</g>
<!-- FeatureModulesAnimalsModule&#45;&gt;AppModule -->
<g id="edge3" class="edge">
<title>FeatureModulesAnimalsModule&#45;&gt;AppModule</title>
<path fill="none" stroke="#000000" d="M340.5757,-122.1061C340.5757,-122.1061 340.5757,-140.991 340.5757,-140.991"/>
<polygon fill="#000000" stroke="#000000" points="337.0758,-140.9909 340.5757,-150.991 344.0758,-140.991 337.0758,-140.9909"/>
</g>
<!-- UiKitsMainModule -->
<g id="node5" class="node">
<title>UiKitsMainModule</title>
<polygon fill="#8dd3c7" stroke="#000000" points="150.4299,-122 147.4299,-126 126.4299,-126 123.4299,-122 23.5701,-122 23.5701,-86 150.4299,-86 150.4299,-122"/>
<text text-anchor="middle" x="87" y="-99.8" font-family="Times,serif" font-size="14.00" fill="#000000">UiKitsMainModule</text>
</g>
<!-- UiKitsMainModule&#45;&gt;AppModule -->
<g id="edge4" class="edge">
<title>UiKitsMainModule&#45;&gt;AppModule</title>
<path fill="none" stroke="#000000" d="M87,-122.1061C87,-141.3391 87,-169 87,-169 87,-169 305.1087,-169 305.1087,-169"/>
<polygon fill="#000000" stroke="#000000" points="305.1088,-172.5001 315.1087,-169 305.1087,-165.5001 305.1088,-172.5001"/>
</g>
</g>
</svg>
