<?xml version="1.0" encoding="UTF-8" standalone="no"?>
<!DOCTYPE svg PUBLIC "-//W3C//DTD SVG 1.1//EN"
 "http://www.w3.org/Graphics/SVG/1.1/DTD/svg11.dtd">
<!-- Generated by graphviz version 2.40.1 (20161225.0304)
 -->
<!-- Title: dependencies Pages: 1 -->
<svg width="904pt" height="284pt"
 viewBox="0.00 0.00 904.00 284.00" xmlns="http://www.w3.org/2000/svg" xmlns:xlink="http://www.w3.org/1999/xlink">
<g id="graph0" class="graph" transform="scale(1 1) rotate(0) translate(4 280)">
<title>dependencies</title>
<polygon fill="#ffffff" stroke="transparent" points="-4,4 -4,-280 900,-280 900,4 -4,4"/>
<text text-anchor="start" x="427.0091" y="-42.4" font-family="sans-serif" font-weight="bold" font-size="14.00" fill="#000000">Legend</text>
<polygon fill="#ffffb3" stroke="transparent" points="214,-10 214,-30 234,-30 234,-10 214,-10"/>
<text text-anchor="start" x="237.629" y="-15.4" font-family="sans-serif" font-size="14.00" fill="#000000"> &#160;Declarations</text>
<polygon fill="#8dd3c7" stroke="transparent" points="327,-10 327,-30 347,-30 347,-10 327,-10"/>
<text text-anchor="start" x="350.7251" y="-15.4" font-family="sans-serif" font-size="14.00" fill="#000000"> &#160;Module</text>
<polygon fill="#80b1d3" stroke="transparent" points="413,-10 413,-30 433,-30 433,-10 413,-10"/>
<text text-anchor="start" x="436.7812" y="-15.4" font-family="sans-serif" font-size="14.00" fill="#000000"> &#160;Bootstrap</text>
<polygon fill="#fdb462" stroke="transparent" points="510,-10 510,-30 530,-30 530,-10 510,-10"/>
<text text-anchor="start" x="533.6732" y="-15.4" font-family="sans-serif" font-size="14.00" fill="#000000"> &#160;Providers</text>
<polygon fill="#fb8072" stroke="transparent" points="606,-10 606,-30 626,-30 626,-10 606,-10"/>
<text text-anchor="start" x="629.7258" y="-15.4" font-family="sans-serif" font-size="14.00" fill="#000000"> &#160;Exports</text>
<g id="clust1" class="cluster">
<title>cluster_AppModule</title>
<polygon fill="none" stroke="#000000" stroke-dasharray="1,5" points="8,-70 8,-268 888,-268 888,-70 8,-70"/>
</g>
<g id="clust2" class="cluster">
<title>cluster_AppModule_declarations</title>
<polygon fill="none" stroke="#000000" points="758,-78 758,-130 880,-130 880,-78 758,-78"/>
</g>
<g id="clust4" class="cluster">
<title>cluster_AppModule_imports</title>
<polygon fill="none" stroke="#000000" points="16,-78 16,-130 750,-130 750,-78 16,-78"/>
</g>
<g id="clust6" class="cluster">
<title>cluster_AppModule_bootstrap</title>
<polygon fill="none" stroke="#000000" points="435,-208 435,-260 559,-260 559,-208 435,-208"/>
</g>
<!-- AppComponent -->
<g id="node1" class="node">
<title>AppComponent</title>
<polygon fill="#ffffb3" stroke="#000000" points="871.9399,-122 766.0601,-122 766.0601,-86 871.9399,-86 871.9399,-122"/>
<text text-anchor="middle" x="819" y="-99.8" font-family="Times,serif" font-size="14.00" fill="#000000">AppComponent</text>
</g>
<!-- AppModule -->
<g id="node2" class="node">
<title>AppModule</title>
<polygon fill="#8dd3c7" stroke="#000000" points="538.6571,-187 535.6571,-191 514.6571,-191 511.6571,-187 455.3429,-187 455.3429,-151 538.6571,-151 538.6571,-187"/>
<text text-anchor="middle" x="497" y="-164.8" font-family="Times,serif" font-size="14.00" fill="#000000">AppModule</text>
</g>
<!-- AppComponent&#45;&gt;AppModule -->
<g id="edge1" class="edge">
<title>AppComponent&#45;&gt;AppModule</title>
<path fill="none" stroke="#000000" d="M819,-122.2843C819,-143.3211 819,-175 819,-175 819,-175 548.7658,-175 548.7658,-175"/>
<polygon fill="#000000" stroke="#000000" points="548.7658,-171.5001 538.7658,-175 548.7657,-178.5001 548.7658,-171.5001"/>
</g>
<!-- AppComponent  -->
<g id="node7" class="node">
<title>AppComponent </title>
<polygon fill="#80b1d3" stroke="#000000" points="551.439,-252 442.561,-252 442.561,-216 551.439,-216 551.439,-252"/>
<text text-anchor="middle" x="497" y="-229.8" font-family="Times,serif" font-size="14.00" fill="#000000">AppComponent </text>
</g>
<!-- AppModule&#45;&gt;AppComponent  -->
<g id="edge6" class="edge">
<title>AppModule&#45;&gt;AppComponent </title>
<path fill="none" stroke="#000000" stroke-dasharray="1,5" d="M497,-187.1061C497,-187.1061 497,-205.991 497,-205.991"/>
<polygon fill="#000000" stroke="#000000" points="493.5001,-205.9909 497,-215.991 500.5001,-205.991 493.5001,-205.9909"/>
</g>
<!-- AppRoutingModule -->
<g id="node3" class="node">
<title>AppRoutingModule</title>
<polygon fill="#8dd3c7" stroke="#000000" points="742.2744,-122 739.2744,-126 718.2744,-126 715.2744,-122 613.7256,-122 613.7256,-86 742.2744,-86 742.2744,-122"/>
<text text-anchor="middle" x="678" y="-99.8" font-family="Times,serif" font-size="14.00" fill="#000000">AppRoutingModule</text>
</g>
<!-- AppRoutingModule&#45;&gt;AppModule -->
<g id="edge2" class="edge">
<title>AppRoutingModule&#45;&gt;AppModule</title>
<path fill="none" stroke="#000000" d="M678,-122.0225C678,-139.3734 678,-163 678,-163 678,-163 548.98,-163 548.98,-163"/>
<polygon fill="#000000" stroke="#000000" points="548.98,-159.5001 538.98,-163 548.9799,-166.5001 548.98,-159.5001"/>
</g>
<!-- FeatureModulesAnimalsModule -->
<g id="node4" class="node">
<title>FeatureModulesAnimalsModule</title>
<polygon fill="#8dd3c7" stroke="#000000" points="595.9594,-122 592.9594,-126 571.9594,-126 568.9594,-122 398.0406,-122 398.0406,-86 595.9594,-86 595.9594,-122"/>
<text text-anchor="middle" x="497" y="-99.8" font-family="Times,serif" font-size="14.00" fill="#000000">FeatureModulesAnimalsModule</text>
</g>
<!-- FeatureModulesAnimalsModule&#45;&gt;AppModule -->
<g id="edge3" class="edge">
<title>FeatureModulesAnimalsModule&#45;&gt;AppModule</title>
<path fill="none" stroke="#000000" d="M497,-122.1061C497,-122.1061 497,-140.991 497,-140.991"/>
<polygon fill="#000000" stroke="#000000" points="493.5001,-140.9909 497,-150.991 500.5001,-140.991 493.5001,-140.9909"/>
</g>
<!-- FeatureModulesDashboardModule -->
<g id="node5" class="node">
<title>FeatureModulesDashboardModule</title>
<polygon fill="#8dd3c7" stroke="#000000" points="379.6629,-122 376.6629,-126 355.6629,-126 352.6629,-122 168.3371,-122 168.3371,-86 379.6629,-86 379.6629,-122"/>
<text text-anchor="middle" x="274" y="-99.8" font-family="Times,serif" font-size="14.00" fill="#000000">FeatureModulesDashboardModule</text>
</g>
<!-- FeatureModulesDashboardModule&#45;&gt;AppModule -->
<g id="edge4" class="edge">
<title>FeatureModulesDashboardModule&#45;&gt;AppModule</title>
<path fill="none" stroke="#000000" d="M274,-122.0225C274,-139.3734 274,-163 274,-163 274,-163 445.317,-163 445.317,-163"/>
<polygon fill="#000000" stroke="#000000" points="445.317,-166.5001 455.317,-163 445.317,-159.5001 445.317,-166.5001"/>
</g>
<!-- UiKitsMainModule -->
<g id="node6" class="node">
<title>UiKitsMainModule</title>
<polygon fill="#8dd3c7" stroke="#000000" points="150.4299,-122 147.4299,-126 126.4299,-126 123.4299,-122 23.5701,-122 23.5701,-86 150.4299,-86 150.4299,-122"/>
<text text-anchor="middle" x="87" y="-99.8" font-family="Times,serif" font-size="14.00" fill="#000000">UiKitsMainModule</text>
</g>
<!-- UiKitsMainModule&#45;&gt;AppModule -->
<g id="edge5" class="edge">
<title>UiKitsMainModule&#45;&gt;AppModule</title>
<path fill="none" stroke="#000000" d="M87,-122.2843C87,-143.3211 87,-175 87,-175 87,-175 445.0496,-175 445.0496,-175"/>
<polygon fill="#000000" stroke="#000000" points="445.0496,-178.5001 455.0496,-175 445.0496,-171.5001 445.0496,-178.5001"/>
</g>
</g>
</svg>
