<?xml version="1.0" encoding="UTF-8" standalone="no"?>
<!DOCTYPE svg PUBLIC "-//W3C//DTD SVG 1.1//EN"
 "http://www.w3.org/Graphics/SVG/1.1/DTD/svg11.dtd">
<!-- Generated by graphviz version 2.40.1 (20161225.0304)
 -->
<!-- Title: dependencies Pages: 1 -->
<svg width="504pt" height="284pt"
 viewBox="0.00 0.00 504.00 284.00" xmlns="http://www.w3.org/2000/svg" xmlns:xlink="http://www.w3.org/1999/xlink">
<g id="graph0" class="graph" transform="scale(1 1) rotate(0) translate(4 280)">
<title>dependencies</title>
<polygon fill="#ffffff" stroke="transparent" points="-4,4 -4,-280 500,-280 500,4 -4,4"/>
<text text-anchor="start" x="227.0091" y="-42.4" font-family="sans-serif" font-weight="bold" font-size="14.00" fill="#000000">Legend</text>
<polygon fill="#ffffb3" stroke="transparent" points="14,-10 14,-30 34,-30 34,-10 14,-10"/>
<text text-anchor="start" x="37.629" y="-15.4" font-family="sans-serif" font-size="14.00" fill="#000000"> &#160;Declarations</text>
<polygon fill="#8dd3c7" stroke="transparent" points="127,-10 127,-30 147,-30 147,-10 127,-10"/>
<text text-anchor="start" x="150.7251" y="-15.4" font-family="sans-serif" font-size="14.00" fill="#000000"> &#160;Module</text>
<polygon fill="#80b1d3" stroke="transparent" points="213,-10 213,-30 233,-30 233,-10 213,-10"/>
<text text-anchor="start" x="236.7812" y="-15.4" font-family="sans-serif" font-size="14.00" fill="#000000"> &#160;Bootstrap</text>
<polygon fill="#fdb462" stroke="transparent" points="310,-10 310,-30 330,-30 330,-10 310,-10"/>
<text text-anchor="start" x="333.6732" y="-15.4" font-family="sans-serif" font-size="14.00" fill="#000000"> &#160;Providers</text>
<polygon fill="#fb8072" stroke="transparent" points="406,-10 406,-30 426,-30 426,-10 406,-10"/>
<text text-anchor="start" x="429.7258" y="-15.4" font-family="sans-serif" font-size="14.00" fill="#000000"> &#160;Exports</text>
<g id="clust1" class="cluster">
<title>cluster_UiKitsMainModule</title>
<polygon fill="none" stroke="#000000" stroke-dasharray="1,5" points="27.5,-70 27.5,-268 468.5,-268 468.5,-70 27.5,-70"/>
</g>
<g id="clust2" class="cluster">
<title>cluster_UiKitsMainModule_declarations</title>
<polygon fill="none" stroke="#000000" points="41.5,-78 41.5,-130 455.5,-130 455.5,-78 41.5,-78"/>
</g>
<g id="clust7" class="cluster">
<title>cluster_UiKitsMainModule_exports</title>
<polygon fill="none" stroke="#000000" points="35.5,-208 35.5,-260 460.5,-260 460.5,-208 35.5,-208"/>
</g>
<!-- FooterComponent -->
<g id="node1" class="node">
<title>FooterComponent</title>
<polygon fill="#ffffb3" stroke="#000000" points="447.3809,-122 329.6191,-122 329.6191,-86 447.3809,-86 447.3809,-122"/>
<text text-anchor="middle" x="388.5" y="-99.8" font-family="Times,serif" font-size="14.00" fill="#000000">FooterComponent</text>
</g>
<!-- UiKitsMainModule -->
<g id="node4" class="node">
<title>UiKitsMainModule</title>
<polygon fill="#8dd3c7" stroke="#000000" points="313.9299,-187 310.9299,-191 289.9299,-191 286.9299,-187 187.0701,-187 187.0701,-151 313.9299,-151 313.9299,-187"/>
<text text-anchor="middle" x="250.5" y="-164.8" font-family="Times,serif" font-size="14.00" fill="#000000">UiKitsMainModule</text>
</g>
<!-- FooterComponent&#45;&gt;UiKitsMainModule -->
<g id="edge1" class="edge">
<title>FooterComponent&#45;&gt;UiKitsMainModule</title>
<path fill="none" stroke="#000000" d="M408.5635,-122.0225C408.5635,-139.3734 408.5635,-163 408.5635,-163 408.5635,-163 323.8797,-163 323.8797,-163"/>
<polygon fill="#000000" stroke="#000000" points="323.8797,-159.5001 313.8797,-163 323.8797,-166.5001 323.8797,-159.5001"/>
</g>
<!-- HeaderComponent -->
<g id="node2" class="node">
<title>HeaderComponent</title>
<polygon fill="#ffffb3" stroke="#000000" points="311.2437,-122 189.7563,-122 189.7563,-86 311.2437,-86 311.2437,-122"/>
<text text-anchor="middle" x="250.5" y="-99.8" font-family="Times,serif" font-size="14.00" fill="#000000">HeaderComponent</text>
</g>
<!-- HeaderComponent&#45;&gt;UiKitsMainModule -->
<g id="edge2" class="edge">
<title>HeaderComponent&#45;&gt;UiKitsMainModule</title>
<path fill="none" stroke="#000000" d="M250.5,-122.1061C250.5,-122.1061 250.5,-140.991 250.5,-140.991"/>
<polygon fill="#000000" stroke="#000000" points="247.0001,-140.9909 250.5,-150.991 254.0001,-140.991 247.0001,-140.9909"/>
</g>
<!-- NavbarComponent -->
<g id="node3" class="node">
<title>NavbarComponent</title>
<polygon fill="#ffffb3" stroke="#000000" points="171.5297,-122 49.4703,-122 49.4703,-86 171.5297,-86 171.5297,-122"/>
<text text-anchor="middle" x="110.5" y="-99.8" font-family="Times,serif" font-size="14.00" fill="#000000">NavbarComponent</text>
</g>
<!-- NavbarComponent&#45;&gt;UiKitsMainModule -->
<g id="edge3" class="edge">
<title>NavbarComponent&#45;&gt;UiKitsMainModule</title>
<path fill="none" stroke="#000000" d="M129.4215,-122.0225C129.4215,-139.3734 129.4215,-163 129.4215,-163 129.4215,-163 177.1239,-163 177.1239,-163"/>
<polygon fill="#000000" stroke="#000000" points="177.1239,-166.5001 187.1239,-163 177.1238,-159.5001 177.1239,-166.5001"/>
</g>
<!-- FooterComponent  -->
<g id="node5" class="node">
<title>FooterComponent </title>
<polygon fill="#fb8072" stroke="#000000" points="452.3814,-252 330.6186,-252 330.6186,-216 452.3814,-216 452.3814,-252"/>
<text text-anchor="middle" x="391.5" y="-229.8" font-family="Times,serif" font-size="14.00" fill="#000000">FooterComponent </text>
</g>
<!-- UiKitsMainModule&#45;&gt;FooterComponent  -->
<g id="edge4" class="edge">
<title>UiKitsMainModule&#45;&gt;FooterComponent </title>
<path fill="none" stroke="#000000" stroke-dasharray="5,2" d="M313.9319,-175C342.3955,-175 369.6865,-175 369.6865,-175 369.6865,-175 369.6865,-205.9775 369.6865,-205.9775"/>
<polygon fill="#000000" stroke="#000000" points="366.1866,-205.9774 369.6865,-215.9775 373.1866,-205.9775 366.1866,-205.9774"/>
</g>
<!-- HeaderComponent  -->
<g id="node6" class="node">
<title>HeaderComponent </title>
<polygon fill="#fb8072" stroke="#000000" points="313.2436,-252 187.7564,-252 187.7564,-216 313.2436,-216 313.2436,-252"/>
<text text-anchor="middle" x="250.5" y="-229.8" font-family="Times,serif" font-size="14.00" fill="#000000">HeaderComponent </text>
</g>
<!-- UiKitsMainModule&#45;&gt;HeaderComponent  -->
<g id="edge5" class="edge">
<title>UiKitsMainModule&#45;&gt;HeaderComponent </title>
<path fill="none" stroke="#000000" stroke-dasharray="5,2" d="M250.5,-187.1061C250.5,-187.1061 250.5,-205.991 250.5,-205.991"/>
<polygon fill="#000000" stroke="#000000" points="247.0001,-205.9909 250.5,-215.991 254.0001,-205.991 247.0001,-205.9909"/>
</g>
<!-- NavbarComponent  -->
<g id="node7" class="node">
<title>NavbarComponent </title>
<polygon fill="#fb8072" stroke="#000000" points="169.5288,-252 43.4712,-252 43.4712,-216 169.5288,-216 169.5288,-252"/>
<text text-anchor="middle" x="106.5" y="-229.8" font-family="Times,serif" font-size="14.00" fill="#000000">NavbarComponent </text>
</g>
<!-- UiKitsMainModule&#45;&gt;NavbarComponent  -->
<g id="edge6" class="edge">
<title>UiKitsMainModule&#45;&gt;NavbarComponent </title>
<path fill="none" stroke="#000000" stroke-dasharray="5,2" d="M187.2634,-175C142.1102,-175 89.3285,-175 89.3285,-175 89.3285,-175 89.3285,-205.9775 89.3285,-205.9775"/>
<polygon fill="#000000" stroke="#000000" points="85.8286,-205.9774 89.3285,-215.9775 92.8286,-205.9775 85.8286,-205.9774"/>
</g>
</g>
</svg>
