<?xml version="1.0" encoding="UTF-8" standalone="no"?>
<!DOCTYPE svg PUBLIC "-//W3C//DTD SVG 1.1//EN"
 "http://www.w3.org/Graphics/SVG/1.1/DTD/svg11.dtd">
<!-- Generated by graphviz version 2.40.1 (20161225.0304)
 -->
<!-- Title: dependencies Pages: 1 -->
<svg width="2315pt" height="290pt"
 viewBox="0.00 0.00 2315.00 290.00" xmlns="http://www.w3.org/2000/svg" xmlns:xlink="http://www.w3.org/1999/xlink">
<g id="graph0" class="graph" transform="scale(1 1) rotate(0) translate(4 286)">
<title>dependencies</title>
<polygon fill="#ffffff" stroke="transparent" points="-4,4 -4,-286 2311,-286 2311,4 -4,4"/>
<text text-anchor="start" x="1132.5091" y="-42.4" font-family="sans-serif" font-weight="bold" font-size="14.00" fill="#000000">Legend</text>
<polygon fill="#ffffb3" stroke="transparent" points="919.5,-10 919.5,-30 939.5,-30 939.5,-10 919.5,-10"/>
<text text-anchor="start" x="943.129" y="-15.4" font-family="sans-serif" font-size="14.00" fill="#000000"> &#160;Declarations</text>
<polygon fill="#8dd3c7" stroke="transparent" points="1032.5,-10 1032.5,-30 1052.5,-30 1052.5,-10 1032.5,-10"/>
<text text-anchor="start" x="1056.2251" y="-15.4" font-family="sans-serif" font-size="14.00" fill="#000000"> &#160;Module</text>
<polygon fill="#80b1d3" stroke="transparent" points="1118.5,-10 1118.5,-30 1138.5,-30 1138.5,-10 1118.5,-10"/>
<text text-anchor="start" x="1142.2812" y="-15.4" font-family="sans-serif" font-size="14.00" fill="#000000"> &#160;Bootstrap</text>
<polygon fill="#fdb462" stroke="transparent" points="1215.5,-10 1215.5,-30 1235.5,-30 1235.5,-10 1215.5,-10"/>
<text text-anchor="start" x="1239.1732" y="-15.4" font-family="sans-serif" font-size="14.00" fill="#000000"> &#160;Providers</text>
<polygon fill="#fb8072" stroke="transparent" points="1311.5,-10 1311.5,-30 1331.5,-30 1331.5,-10 1311.5,-10"/>
<text text-anchor="start" x="1335.2258" y="-15.4" font-family="sans-serif" font-size="14.00" fill="#000000"> &#160;Exports</text>
<g id="clust1" class="cluster">
<title>cluster_AppModule</title>
<polygon fill="none" stroke="#000000" stroke-dasharray="1,5" points="8,-70 8,-274 296,-274 296,-70 8,-70"/>
</g>
<g id="clust2" class="cluster">
<title>cluster_AppModule_declarations</title>
<polygon fill="none" stroke="#000000" points="16,-78 16,-130 138,-130 138,-78 16,-78"/>
</g>
<g id="clust4" class="cluster">
<title>cluster_AppModule_imports</title>
<polygon fill="none" stroke="#000000" points="146,-78 146,-130 288,-130 288,-78 146,-78"/>
</g>
<g id="clust6" class="cluster">
<title>cluster_AppModule_bootstrap</title>
<polygon fill="none" stroke="#000000" points="85,-214 85,-266 209,-266 209,-214 85,-214"/>
</g>
<g id="clust14" class="cluster">
<title>cluster_FeatureLazyAboutModule</title>
<polygon fill="none" stroke="#000000" stroke-dasharray="1,5" points="1175,-70 1175,-198 1355,-198 1355,-70 1175,-70"/>
</g>
<g id="clust15" class="cluster">
<title>cluster_FeatureLazyAboutModule_declarations</title>
<polygon fill="none" stroke="#000000" points="1185,-78 1185,-130 1345,-130 1345,-78 1185,-78"/>
</g>
<g id="clust21" class="cluster">
<title>cluster_FeatureLazyHelpModule</title>
<polygon fill="none" stroke="#000000" stroke-dasharray="1,5" points="1363,-70 1363,-198 1535,-198 1535,-70 1363,-70"/>
</g>
<g id="clust22" class="cluster">
<title>cluster_FeatureLazyHelpModule_declarations</title>
<polygon fill="none" stroke="#000000" points="1373,-78 1373,-130 1525,-130 1525,-78 1373,-78"/>
</g>
<g id="clust28" class="cluster">
<title>cluster_FeatureLazyHomeModule</title>
<polygon fill="none" stroke="#000000" stroke-dasharray="1,5" points="1543,-70 1543,-198 1723,-198 1723,-70 1543,-70"/>
</g>
<g id="clust29" class="cluster">
<title>cluster_FeatureLazyHomeModule_declarations</title>
<polygon fill="none" stroke="#000000" points="1554,-78 1554,-130 1712,-130 1712,-78 1554,-78"/>
</g>
<g id="clust35" class="cluster">
<title>cluster_FeatureLazyLoginModule</title>
<polygon fill="none" stroke="#000000" stroke-dasharray="1,5" points="1731,-70 1731,-198 1909,-198 1909,-70 1731,-70"/>
</g>
<g id="clust36" class="cluster">
<title>cluster_FeatureLazyLoginModule_declarations</title>
<polygon fill="none" stroke="#000000" points="1741,-78 1741,-130 1899,-130 1899,-78 1741,-78"/>
</g>
<g id="clust42" class="cluster">
<title>cluster_FeatureLazyProfileModule</title>
<polygon fill="none" stroke="#000000" stroke-dasharray="1,5" points="1917,-70 1917,-198 2101,-198 2101,-70 1917,-70"/>
</g>
<g id="clust43" class="cluster">
<title>cluster_FeatureLazyProfileModule_declarations</title>
<polygon fill="none" stroke="#000000" points="1928,-78 1928,-130 2090,-130 2090,-78 1928,-78"/>
</g>
<g id="clust49" class="cluster">
<title>cluster_FeatureLazySettingsModule</title>
<polygon fill="none" stroke="#000000" stroke-dasharray="1,5" points="2109,-70 2109,-198 2299,-198 2299,-70 2109,-70"/>
</g>
<g id="clust50" class="cluster">
<title>cluster_FeatureLazySettingsModule_declarations</title>
<polygon fill="none" stroke="#000000" points="2119,-78 2119,-130 2289,-130 2289,-78 2119,-78"/>
</g>
<g id="clust56" class="cluster">
<title>cluster_UiKitsMainModule</title>
<polygon fill="none" stroke="#000000" stroke-dasharray="1,5" points="304,-138 304,-206 1167,-206 1167,-138 304,-138"/>
</g>
<g id="clust57" class="cluster">
<title>cluster_UiKitsMainModule_declarations</title>
<polygon fill="none" stroke="#000000" points="745,-146 745,-198 1159,-198 1159,-146 745,-146"/>
</g>
<g id="clust62" class="cluster">
<title>cluster_UiKitsMainModule_exports</title>
<polygon fill="none" stroke="#000000" points="312,-146 312,-198 737,-198 737,-146 312,-146"/>
</g>
<!-- AppComponent -->
<g id="node1" class="node">
<title>AppComponent</title>
<polygon fill="#ffffb3" stroke="#000000" points="129.9399,-122 24.0601,-122 24.0601,-86 129.9399,-86 129.9399,-122"/>
<text text-anchor="middle" x="77" y="-99.8" font-family="Times,serif" font-size="14.00" fill="#000000">AppComponent</text>
</g>
<!-- AppModule -->
<g id="node2" class="node">
<title>AppModule</title>
<polygon fill="#8dd3c7" stroke="#000000" points="188.6571,-190 185.6571,-194 164.6571,-194 161.6571,-190 105.3429,-190 105.3429,-154 188.6571,-154 188.6571,-190"/>
<text text-anchor="middle" x="147" y="-167.8" font-family="Times,serif" font-size="14.00" fill="#000000">AppModule</text>
</g>
<!-- AppComponent&#45;&gt;AppModule -->
<g id="edge1" class="edge">
<title>AppComponent&#45;&gt;AppModule</title>
<path fill="none" stroke="#000000" d="M117.4457,-122.2228C117.4457,-122.2228 117.4457,-143.7269 117.4457,-143.7269"/>
<polygon fill="#000000" stroke="#000000" points="113.9457,-143.7269 117.4457,-153.7269 120.9457,-143.727 113.9457,-143.7269"/>
</g>
<!-- AppComponent  -->
<g id="node4" class="node">
<title>AppComponent </title>
<polygon fill="#80b1d3" stroke="#000000" points="201.439,-258 92.561,-258 92.561,-222 201.439,-222 201.439,-258"/>
<text text-anchor="middle" x="147" y="-235.8" font-family="Times,serif" font-size="14.00" fill="#000000">AppComponent </text>
</g>
<!-- AppModule&#45;&gt;AppComponent  -->
<g id="edge3" class="edge">
<title>AppModule&#45;&gt;AppComponent </title>
<path fill="none" stroke="#000000" stroke-dasharray="1,5" d="M147,-190.2228C147,-190.2228 147,-211.7269 147,-211.7269"/>
<polygon fill="#000000" stroke="#000000" points="143.5001,-211.7269 147,-221.7269 150.5001,-211.727 143.5001,-211.7269"/>
</g>
<!-- UiKitsMainModule -->
<g id="node3" class="node">
<title>UiKitsMainModule</title>
<polygon fill="#8dd3c7" stroke="#000000" points="280.4299,-122 277.4299,-126 256.4299,-126 253.4299,-122 153.5701,-122 153.5701,-86 280.4299,-86 280.4299,-122"/>
<text text-anchor="middle" x="217" y="-99.8" font-family="Times,serif" font-size="14.00" fill="#000000">UiKitsMainModule</text>
</g>
<!-- UiKitsMainModule&#45;&gt;AppModule -->
<g id="edge2" class="edge">
<title>UiKitsMainModule&#45;&gt;AppModule</title>
<path fill="none" stroke="#000000" d="M171.3068,-122.2228C171.3068,-122.2228 171.3068,-143.7269 171.3068,-143.7269"/>
<polygon fill="#000000" stroke="#000000" points="167.8069,-143.7269 171.3068,-153.7269 174.8069,-143.727 167.8069,-143.7269"/>
</g>
<!-- FooterComponent  -->
<g id="node20" class="node">
<title>FooterComponent </title>
<polygon fill="#fb8072" stroke="#000000" points="728.8814,-190 607.1186,-190 607.1186,-154 728.8814,-154 728.8814,-190"/>
<text text-anchor="middle" x="668" y="-167.8" font-family="Times,serif" font-size="14.00" fill="#000000">FooterComponent </text>
</g>
<!-- UiKitsMainModule&#45;&gt;FooterComponent  -->
<g id="edge13" class="edge">
<title>UiKitsMainModule&#45;&gt;FooterComponent </title>
<path fill="none" stroke="#000000" stroke-dasharray="5,2" d="M280.6607,-110C404.9792,-110 668,-110 668,-110 668,-110 668,-143.7333 668,-143.7333"/>
<polygon fill="#000000" stroke="#000000" points="664.5001,-143.7333 668,-153.7333 671.5001,-143.7333 664.5001,-143.7333"/>
</g>
<!-- HeaderComponent  -->
<g id="node21" class="node">
<title>HeaderComponent </title>
<polygon fill="#fb8072" stroke="#000000" points="589.7436,-190 464.2564,-190 464.2564,-154 589.7436,-154 589.7436,-190"/>
<text text-anchor="middle" x="527" y="-167.8" font-family="Times,serif" font-size="14.00" fill="#000000">HeaderComponent </text>
</g>
<!-- UiKitsMainModule&#45;&gt;HeaderComponent  -->
<g id="edge14" class="edge">
<title>UiKitsMainModule&#45;&gt;HeaderComponent </title>
<path fill="none" stroke="#000000" stroke-dasharray="5,2" d="M280.4812,-116C371.1758,-116 527,-116 527,-116 527,-116 527,-143.973 527,-143.973"/>
<polygon fill="#000000" stroke="#000000" points="523.5001,-143.973 527,-153.973 530.5001,-143.973 523.5001,-143.973"/>
</g>
<!-- NavbarComponent  -->
<g id="node22" class="node">
<title>NavbarComponent </title>
<polygon fill="#fb8072" stroke="#000000" points="446.0288,-190 319.9712,-190 319.9712,-154 446.0288,-154 446.0288,-190"/>
<text text-anchor="middle" x="383" y="-167.8" font-family="Times,serif" font-size="14.00" fill="#000000">NavbarComponent </text>
</g>
<!-- UiKitsMainModule&#45;&gt;NavbarComponent  -->
<g id="edge15" class="edge">
<title>UiKitsMainModule&#45;&gt;NavbarComponent </title>
<path fill="none" stroke="#000000" stroke-dasharray="5,2" d="M240.842,-122.2228C240.842,-142.3652 240.842,-172 240.842,-172 240.842,-172 309.8196,-172 309.8196,-172"/>
<polygon fill="#000000" stroke="#000000" points="309.8196,-175.5001 319.8196,-172 309.8195,-168.5001 309.8196,-175.5001"/>
</g>
<!-- AboutPageComponent -->
<g id="node5" class="node">
<title>AboutPageComponent</title>
<polygon fill="#ffffb3" stroke="#000000" points="1336.5421,-122 1193.4579,-122 1193.4579,-86 1336.5421,-86 1336.5421,-122"/>
<text text-anchor="middle" x="1265" y="-99.8" font-family="Times,serif" font-size="14.00" fill="#000000">AboutPageComponent</text>
</g>
<!-- FeatureLazyAboutModule -->
<g id="node6" class="node">
<title>FeatureLazyAboutModule</title>
<polygon fill="#8dd3c7" stroke="#000000" points="1347.0071,-190 1344.0071,-194 1323.0071,-194 1320.0071,-190 1182.9929,-190 1182.9929,-154 1347.0071,-154 1347.0071,-190"/>
<text text-anchor="middle" x="1265" y="-167.8" font-family="Times,serif" font-size="14.00" fill="#000000">FeatureLazyAboutModule</text>
</g>
<!-- AboutPageComponent&#45;&gt;FeatureLazyAboutModule -->
<g id="edge4" class="edge">
<title>AboutPageComponent&#45;&gt;FeatureLazyAboutModule</title>
<path fill="none" stroke="#000000" d="M1265,-122.2228C1265,-122.2228 1265,-143.7269 1265,-143.7269"/>
<polygon fill="#000000" stroke="#000000" points="1261.5001,-143.7269 1265,-153.7269 1268.5001,-143.727 1261.5001,-143.7269"/>
</g>
<!-- HelpPageComponent -->
<g id="node7" class="node">
<title>HelpPageComponent</title>
<polygon fill="#ffffb3" stroke="#000000" points="1516.7562,-122 1381.2438,-122 1381.2438,-86 1516.7562,-86 1516.7562,-122"/>
<text text-anchor="middle" x="1449" y="-99.8" font-family="Times,serif" font-size="14.00" fill="#000000">HelpPageComponent</text>
</g>
<!-- FeatureLazyHelpModule -->
<g id="node8" class="node">
<title>FeatureLazyHelpModule</title>
<polygon fill="#8dd3c7" stroke="#000000" points="1527.2212,-190 1524.2212,-194 1503.2212,-194 1500.2212,-190 1370.7788,-190 1370.7788,-154 1527.2212,-154 1527.2212,-190"/>
<text text-anchor="middle" x="1449" y="-167.8" font-family="Times,serif" font-size="14.00" fill="#000000">FeatureLazyHelpModule</text>
</g>
<!-- HelpPageComponent&#45;&gt;FeatureLazyHelpModule -->
<g id="edge5" class="edge">
<title>HelpPageComponent&#45;&gt;FeatureLazyHelpModule</title>
<path fill="none" stroke="#000000" d="M1449,-122.2228C1449,-122.2228 1449,-143.7269 1449,-143.7269"/>
<polygon fill="#000000" stroke="#000000" points="1445.5001,-143.7269 1449,-153.7269 1452.5001,-143.727 1445.5001,-143.7269"/>
</g>
<!-- HomePageComponent -->
<g id="node9" class="node">
<title>HomePageComponent</title>
<polygon fill="#ffffb3" stroke="#000000" points="1704.2562,-122 1561.7438,-122 1561.7438,-86 1704.2562,-86 1704.2562,-122"/>
<text text-anchor="middle" x="1633" y="-99.8" font-family="Times,serif" font-size="14.00" fill="#000000">HomePageComponent</text>
</g>
<!-- FeatureLazyHomeModule -->
<g id="node10" class="node">
<title>FeatureLazyHomeModule</title>
<polygon fill="#8dd3c7" stroke="#000000" points="1714.7212,-190 1711.7212,-194 1690.7212,-194 1687.7212,-190 1551.2788,-190 1551.2788,-154 1714.7212,-154 1714.7212,-190"/>
<text text-anchor="middle" x="1633" y="-167.8" font-family="Times,serif" font-size="14.00" fill="#000000">FeatureLazyHomeModule</text>
</g>
<!-- HomePageComponent&#45;&gt;FeatureLazyHomeModule -->
<g id="edge6" class="edge">
<title>HomePageComponent&#45;&gt;FeatureLazyHomeModule</title>
<path fill="none" stroke="#000000" d="M1633,-122.2228C1633,-122.2228 1633,-143.7269 1633,-143.7269"/>
<polygon fill="#000000" stroke="#000000" points="1629.5001,-143.7269 1633,-153.7269 1636.5001,-143.727 1629.5001,-143.7269"/>
</g>
<!-- LoginPageComponent -->
<g id="node11" class="node">
<title>LoginPageComponent</title>
<polygon fill="#ffffb3" stroke="#000000" points="1890.9874,-122 1749.0126,-122 1749.0126,-86 1890.9874,-86 1890.9874,-122"/>
<text text-anchor="middle" x="1820" y="-99.8" font-family="Times,serif" font-size="14.00" fill="#000000">LoginPageComponent</text>
</g>
<!-- FeatureLazyLoginModule -->
<g id="node12" class="node">
<title>FeatureLazyLoginModule</title>
<polygon fill="#8dd3c7" stroke="#000000" points="1901.4524,-190 1898.4524,-194 1877.4524,-194 1874.4524,-190 1738.5476,-190 1738.5476,-154 1901.4524,-154 1901.4524,-190"/>
<text text-anchor="middle" x="1820" y="-167.8" font-family="Times,serif" font-size="14.00" fill="#000000">FeatureLazyLoginModule</text>
</g>
<!-- LoginPageComponent&#45;&gt;FeatureLazyLoginModule -->
<g id="edge7" class="edge">
<title>LoginPageComponent&#45;&gt;FeatureLazyLoginModule</title>
<path fill="none" stroke="#000000" d="M1820,-122.2228C1820,-122.2228 1820,-143.7269 1820,-143.7269"/>
<polygon fill="#000000" stroke="#000000" points="1816.5001,-143.7269 1820,-153.7269 1823.5001,-143.727 1816.5001,-143.7269"/>
</g>
<!-- ProfilePageComponent -->
<g id="node13" class="node">
<title>ProfilePageComponent</title>
<polygon fill="#ffffb3" stroke="#000000" points="2082.1442,-122 1935.8558,-122 1935.8558,-86 2082.1442,-86 2082.1442,-122"/>
<text text-anchor="middle" x="2009" y="-99.8" font-family="Times,serif" font-size="14.00" fill="#000000">ProfilePageComponent</text>
</g>
<!-- FeatureLazyProfileModule -->
<g id="node14" class="node">
<title>FeatureLazyProfileModule</title>
<polygon fill="#8dd3c7" stroke="#000000" points="2092.6093,-190 2089.6093,-194 2068.6093,-194 2065.6093,-190 1925.3907,-190 1925.3907,-154 2092.6093,-154 2092.6093,-190"/>
<text text-anchor="middle" x="2009" y="-167.8" font-family="Times,serif" font-size="14.00" fill="#000000">FeatureLazyProfileModule</text>
</g>
<!-- ProfilePageComponent&#45;&gt;FeatureLazyProfileModule -->
<g id="edge8" class="edge">
<title>ProfilePageComponent&#45;&gt;FeatureLazyProfileModule</title>
<path fill="none" stroke="#000000" d="M2009,-122.2228C2009,-122.2228 2009,-143.7269 2009,-143.7269"/>
<polygon fill="#000000" stroke="#000000" points="2005.5001,-143.7269 2009,-153.7269 2012.5001,-143.727 2005.5001,-143.7269"/>
</g>
<!-- SettingsPageComponent -->
<g id="node15" class="node">
<title>SettingsPageComponent</title>
<polygon fill="#ffffb3" stroke="#000000" points="2280.6582,-122 2127.3418,-122 2127.3418,-86 2280.6582,-86 2280.6582,-122"/>
<text text-anchor="middle" x="2204" y="-99.8" font-family="Times,serif" font-size="14.00" fill="#000000">SettingsPageComponent</text>
</g>
<!-- FeatureLazySettingsModule -->
<g id="node16" class="node">
<title>FeatureLazySettingsModule</title>
<polygon fill="#8dd3c7" stroke="#000000" points="2291.1232,-190 2288.1232,-194 2267.1232,-194 2264.1232,-190 2116.8768,-190 2116.8768,-154 2291.1232,-154 2291.1232,-190"/>
<text text-anchor="middle" x="2204" y="-167.8" font-family="Times,serif" font-size="14.00" fill="#000000">FeatureLazySettingsModule</text>
</g>
<!-- SettingsPageComponent&#45;&gt;FeatureLazySettingsModule -->
<g id="edge9" class="edge">
<title>SettingsPageComponent&#45;&gt;FeatureLazySettingsModule</title>
<path fill="none" stroke="#000000" d="M2204,-122.2228C2204,-122.2228 2204,-143.7269 2204,-143.7269"/>
<polygon fill="#000000" stroke="#000000" points="2200.5001,-143.7269 2204,-153.7269 2207.5001,-143.727 2200.5001,-143.7269"/>
</g>
<!-- FooterComponent -->
<g id="node17" class="node">
<title>FooterComponent</title>
<polygon fill="#ffffb3" stroke="#000000" points="1150.8809,-190 1033.1191,-190 1033.1191,-154 1150.8809,-154 1150.8809,-190"/>
<text text-anchor="middle" x="1092" y="-167.8" font-family="Times,serif" font-size="14.00" fill="#000000">FooterComponent</text>
</g>
<!-- FooterComponent&#45;&gt;UiKitsMainModule -->
<g id="edge10" class="edge">
<title>FooterComponent&#45;&gt;UiKitsMainModule</title>
<path fill="none" stroke="#000000" d="M1092,-153.8468C1092,-130.2434 1092,-92 1092,-92 1092,-92 290.2798,-92 290.2798,-92"/>
<polygon fill="#000000" stroke="#000000" points="290.2799,-88.5001 280.2798,-92 290.2798,-95.5001 290.2799,-88.5001"/>
</g>
<!-- HeaderComponent -->
<g id="node18" class="node">
<title>HeaderComponent</title>
<polygon fill="#ffffb3" stroke="#000000" points="1014.7437,-190 893.2563,-190 893.2563,-154 1014.7437,-154 1014.7437,-190"/>
<text text-anchor="middle" x="954" y="-167.8" font-family="Times,serif" font-size="14.00" fill="#000000">HeaderComponent</text>
</g>
<!-- HeaderComponent&#45;&gt;UiKitsMainModule -->
<g id="edge11" class="edge">
<title>HeaderComponent&#45;&gt;UiKitsMainModule</title>
<path fill="none" stroke="#000000" d="M954,-153.7079C954,-131.7943 954,-98 954,-98 954,-98 290.4741,-98 290.4741,-98"/>
<polygon fill="#000000" stroke="#000000" points="290.4741,-94.5001 280.4741,-98 290.474,-101.5001 290.4741,-94.5001"/>
</g>
<!-- NavbarComponent -->
<g id="node19" class="node">
<title>NavbarComponent</title>
<polygon fill="#ffffb3" stroke="#000000" points="875.0297,-190 752.9703,-190 752.9703,-154 875.0297,-154 875.0297,-190"/>
<text text-anchor="middle" x="814" y="-167.8" font-family="Times,serif" font-size="14.00" fill="#000000">NavbarComponent</text>
</g>
<!-- NavbarComponent&#45;&gt;UiKitsMainModule -->
<g id="edge12" class="edge">
<title>NavbarComponent&#45;&gt;UiKitsMainModule</title>
<path fill="none" stroke="#000000" d="M814,-153.7772C814,-133.6348 814,-104 814,-104 814,-104 290.3243,-104 290.3243,-104"/>
<polygon fill="#000000" stroke="#000000" points="290.3243,-100.5001 280.3243,-104 290.3242,-107.5001 290.3243,-100.5001"/>
</g>
</g>
</svg>
